<svg xmlns="http://www.w3.org/2000/svg" viewBox="0 0 500 500"><g id="freepik--text-boxes--inject-2"><g id="freepik--text-box--inject-2"><g id="freepik----inject-2"><g id="freepik--speech-bubble--inject-2"><g id="freepik--speach-bubble--inject-2"><path d="M96.5,27.2,42.61,58.25a2.94,2.94,0,0,0-1.34,2.31V90.65A2.92,2.92,0,0,0,42.61,93l5.32,3a3,3,0,0,0,2.68,0l53.89-31a3,3,0,0,0,1.34-2.32V32.52a2.9,2.9,0,0,0-1.34-2.3l-5.32-3A3,3,0,0,0,96.5,27.2Z" style="fill:#263238"></path><path d="M105.82,32.28c-.1-.68-.65-.92-1.32-.54L50.62,62.79a2.77,2.77,0,0,0-.95,1l-8-4.59a2.63,2.63,0,0,1,.92-1l53.89-31a3,3,0,0,1,2.68,0l5.32,3A3,3,0,0,1,105.82,32.28Z" style="fill:#455a64"></path><path d="M104.5,31.75l-53.89,31a3,3,0,0,0-1.33,2.32V95.19c0,.85.6,1.2,1.33.77l53.89-31a3,3,0,0,0,1.34-2.32V32.52C105.84,31.67,105.24,31.32,104.5,31.75Z" style="fill:#37474f"></path></g></g></g><path d="M62.6,70.5c0,.24,0,.56,0,1s0,.83,0,1.26,0,.86,0,1.27,0,.73,0,1A5.86,5.86,0,0,0,62.75,76a1.7,1.7,0,0,0,.38.76,1,1,0,0,0,.65.3,1.86,1.86,0,0,0,1-.32,3.79,3.79,0,0,0,1-.77,4.52,4.52,0,0,0,1-1.76c.08-.3.15-.56.19-.8a3.45,3.45,0,0,1,.19-.71.9.9,0,0,1,.4-.4L69.75,71a.21.21,0,0,1,.27,0,.49.49,0,0,1,.11.35,10.35,10.35,0,0,1-.43,2.79,12.7,12.7,0,0,1-1.13,2.72,13.44,13.44,0,0,1-1.7,2.37A8.72,8.72,0,0,1,64.76,81a4.47,4.47,0,0,1-2.21.71,2.53,2.53,0,0,1-1.66-.59,3.72,3.72,0,0,1-1.06-1.68,9.48,9.48,0,0,1-.42-2.53q0-1.07,0-2.31t0-2.4a13.78,13.78,0,0,1,.41-3,14.74,14.74,0,0,1,1.06-2.9,12.28,12.28,0,0,1,1.66-2.51,8.62,8.62,0,0,1,2.22-1.85,4.69,4.69,0,0,1,2.11-.7,2.84,2.84,0,0,1,1.7.41,3,3,0,0,1,1.13,1.41,5.85,5.85,0,0,1,.43,2.29,1.2,1.2,0,0,1-.11.48.71.71,0,0,1-.27.33l-2.25,1.3c-.2.11-.33.13-.4.05a1.13,1.13,0,0,1-.19-.48,3.56,3.56,0,0,0-.19-.58,1.07,1.07,0,0,0-.37-.46,1.08,1.08,0,0,0-.62-.16,2.16,2.16,0,0,0-1,.35,3.54,3.54,0,0,0-1,.81,4.79,4.79,0,0,0-.65,1.06,5.41,5.41,0,0,0-.38,1.2A8.71,8.71,0,0,0,62.6,70.5Z" style="fill:#f0f0f0"></path><path d="M77.24,54.73a4.57,4.57,0,0,1,2-.67,2.83,2.83,0,0,1,1.59.34,2.57,2.57,0,0,1,1.05,1.09A3.52,3.52,0,0,1,82.3,57a1.2,1.2,0,0,1-.11.48.69.69,0,0,1-.25.31l-2.26,1.31a.61.61,0,0,1-.39.11.67.67,0,0,1-.3-.14l-.16-.17a.77.77,0,0,0-.32-.2,1.2,1.2,0,0,0-.52,0,2.06,2.06,0,0,0-.75.29,5.39,5.39,0,0,0-.63.43,3.74,3.74,0,0,0-.53.52,2.52,2.52,0,0,0-.38.63,1.86,1.86,0,0,0-.15.75.83.83,0,0,0,.17.57.74.74,0,0,0,.55.17,4.33,4.33,0,0,0,1-.16l1.58-.41a5.17,5.17,0,0,1,1.65-.21,1.94,1.94,0,0,1,1.18.45,2.41,2.41,0,0,1,.71,1.18,7.43,7.43,0,0,1,.23,2,9,9,0,0,1-.39,2.64A11.32,11.32,0,0,1,81.14,70a10.86,10.86,0,0,1-1.69,2.12,10.39,10.39,0,0,1-2.13,1.63,5.16,5.16,0,0,1-2.13.75,2.79,2.79,0,0,1-1.66-.3,2.54,2.54,0,0,1-1.09-1.13A3.85,3.85,0,0,1,72,71.34a1.07,1.07,0,0,1,.12-.48.65.65,0,0,1,.25-.32l2.25-1.3a.7.7,0,0,1,.38-.12.54.54,0,0,1,.27.12,2.39,2.39,0,0,1,.21.22,1.2,1.2,0,0,0,.37.28,1.14,1.14,0,0,0,.58.1,2,2,0,0,0,.87-.32,6.46,6.46,0,0,0,1.53-1.18,2.14,2.14,0,0,0,.61-1.46.57.57,0,0,0-.23-.53,1.17,1.17,0,0,0-.67-.1,6.55,6.55,0,0,0-1.14.22c-.47.13-1,.27-1.64.42a2.48,2.48,0,0,1-2.59-.45,4.7,4.7,0,0,1-.82-3.17,9.14,9.14,0,0,1,.33-2.37,11.14,11.14,0,0,1,1-2.39,10.37,10.37,0,0,1,1.54-2.14A8.55,8.55,0,0,1,77.24,54.73Z" style="fill:#f0f0f0"></path><path d="M89.7,47.54a4.56,4.56,0,0,1,2-.68,3,3,0,0,1,1.59.34,2.69,2.69,0,0,1,1,1.09,3.56,3.56,0,0,1,.4,1.55,1.07,1.07,0,0,1-.12.48.62.62,0,0,1-.25.31l-2.25,1.3a.63.63,0,0,1-.39.12.62.62,0,0,1-.3-.14l-.16-.17a.84.84,0,0,0-.32-.2,1.06,1.06,0,0,0-.52,0,2,2,0,0,0-.75.29,5.39,5.39,0,0,0-.63.43,3.8,3.8,0,0,0-.54.52,2.48,2.48,0,0,0-.37.63,1.86,1.86,0,0,0-.15.75.78.78,0,0,0,.16.56.73.73,0,0,0,.55.18,4.32,4.32,0,0,0,1-.16l1.58-.41A5.17,5.17,0,0,1,93,54.07a2,2,0,0,1,1.18.44,2.45,2.45,0,0,1,.71,1.19,7.43,7.43,0,0,1,.23,2,8.76,8.76,0,0,1-.4,2.64,10.44,10.44,0,0,1-1.11,2.46,11,11,0,0,1-1.68,2.12,10.76,10.76,0,0,1-2.13,1.63,5.16,5.16,0,0,1-2.13.75A3,3,0,0,1,86,67a2.59,2.59,0,0,1-1.09-1.13,3.74,3.74,0,0,1-.42-1.75,1,1,0,0,1,.12-.47.65.65,0,0,1,.24-.32l2.26-1.3a.85.85,0,0,1,.38-.13.54.54,0,0,1,.27.12,2.88,2.88,0,0,1,.21.23,1.08,1.08,0,0,0,.37.27,1,1,0,0,0,.58.1,2,2,0,0,0,.87-.31,6.49,6.49,0,0,0,1.53-1.19,2.1,2.1,0,0,0,.61-1.45.57.57,0,0,0-.23-.53,1.09,1.09,0,0,0-.67-.1,5.72,5.72,0,0,0-1.14.22q-.7.19-1.65.42a2.51,2.51,0,0,1-2.59-.45,4.78,4.78,0,0,1-.81-3.17,9.14,9.14,0,0,1,.33-2.37,11.14,11.14,0,0,1,1-2.39,10.71,10.71,0,0,1,1.54-2.15A8.51,8.51,0,0,1,89.7,47.54Z" style="fill:#f0f0f0"></path></g><g id="freepik--text-box--inject-2"><g id="freepik----inject-2"><g id="freepik--speech-bubble--inject-2"><g id="freepik--speach-bubble--inject-2"><path d="M96.5,89.72l-53.89,31a3,3,0,0,0-1.34,2.32v30.08a2.92,2.92,0,0,0,1.34,2.3l5.32,3a3,3,0,0,0,2.68,0l53.89-31a3,3,0,0,0,1.34-2.32V95a2.92,2.92,0,0,0-1.34-2.3l-5.32-3A3,3,0,0,0,96.5,89.72Z" style="fill:#263238"></path><path d="M105.82,94.79c-.1-.67-.65-.91-1.32-.53l-53.88,31a2.77,2.77,0,0,0-.95,1l-8-4.59a2.63,2.63,0,0,1,.92-.95l53.89-31a3,3,0,0,1,2.68,0l5.32,3A2.92,2.92,0,0,1,105.82,94.79Z" style="fill:#455a64"></path><path d="M104.5,94.26l-53.89,31a3,3,0,0,0-1.33,2.32V157.7c0,.85.6,1.2,1.33.77l53.89-31a3,3,0,0,0,1.34-2.32V95C105.84,94.18,105.24,93.83,104.5,94.26Z" style="fill:#37474f"></path></g></g></g><path d="M62.85,125.82a.25.25,0,0,1,.33,0,.58.58,0,0,1,.14.43v17.11a1.37,1.37,0,0,1-.14.58.8.8,0,0,1-.33.4l-2.25,1.3a.24.24,0,0,1-.33,0,.57.57,0,0,1-.14-.42v-6.49l-3.82,2.2v6.49a1.4,1.4,0,0,1-.13.59,1,1,0,0,1-.33.4l-2.25,1.3a.27.27,0,0,1-.33,0,.58.58,0,0,1-.14-.44V132.15a1.42,1.42,0,0,1,.14-.59.9.9,0,0,1,.33-.4l2.25-1.3a.26.26,0,0,1,.33,0,.56.56,0,0,1,.13.42v6.38l3.82-2.2V128.1a1.41,1.41,0,0,1,.14-.58.85.85,0,0,1,.33-.4Z" style="fill:#f0f0f0"></path><path d="M75.43,118.56a.24.24,0,0,1,.33,0,.57.57,0,0,1,.14.42v2.81a1.34,1.34,0,0,1-.14.58.88.88,0,0,1-.33.41l-3,1.74v13.59a1.4,1.4,0,0,1-.13.59,1.05,1.05,0,0,1-.33.4l-2.25,1.3a.27.27,0,0,1-.33,0,.58.58,0,0,1-.14-.43V126.38l-3,1.75a.26.26,0,0,1-.33,0,.58.58,0,0,1-.13-.43v-2.8a1.4,1.4,0,0,1,.13-.59.91.91,0,0,1,.33-.4Z" style="fill:#f0f0f0"></path><path d="M83.34,127.86a1.13,1.13,0,0,1-.24-.3l-1.61-3.44v8.77a1.37,1.37,0,0,1-.14.58.8.8,0,0,1-.33.4l-2.25,1.3a.24.24,0,0,1-.33,0,.57.57,0,0,1-.14-.42V117.61a1.37,1.37,0,0,1,.14-.58.85.85,0,0,1,.33-.4l2-1.15c.22-.14.4-.14.51,0a1.71,1.71,0,0,1,.23.3l2.78,5.72,2.79-8.94a5.88,5.88,0,0,1,.22-.56,1.3,1.3,0,0,1,.52-.59l2-1.15a.25.25,0,0,1,.32,0,.58.58,0,0,1,.14.43v17.11a1.42,1.42,0,0,1-.14.59,1,1,0,0,1-.32.4l-2.26,1.3a.26.26,0,0,1-.33,0,.54.54,0,0,1-.13-.42v-8.77l-1.62,5.31a5.67,5.67,0,0,1-.23.57,1,1,0,0,1-.41.46l-1.1.63C83.57,128,83.44,128,83.34,127.86Z" style="fill:#f0f0f0"></path><path d="M102,117.53a.25.25,0,0,1,.33,0,.56.56,0,0,1,.14.42v2.81a1.37,1.37,0,0,1-.14.58.8.8,0,0,1-.33.4l-8,4.6a.25.25,0,0,1-.33,0,.57.57,0,0,1-.14-.42V108.81a1.37,1.37,0,0,1,.14-.58.8.8,0,0,1,.33-.4l2.25-1.3a.24.24,0,0,1,.33,0,.57.57,0,0,1,.13.42v13.59Z" style="fill:#f0f0f0"></path></g><g id="freepik--text-box--inject-2"><g id="freepik----inject-2"><g id="freepik--speech-bubble--inject-2"><g id="freepik--speach-bubble--inject-2"><path d="M96.5,152.23,42.61,183.28a2.94,2.94,0,0,0-1.34,2.31v30.08a2.89,2.89,0,0,0,1.34,2.3l5.32,3a3,3,0,0,0,2.68,0l53.89-31.05a2.94,2.94,0,0,0,1.34-2.31V157.55a2.92,2.92,0,0,0-1.34-2.31l-5.32-3A3,3,0,0,0,96.5,152.23Z" style="fill:#263238"></path><path d="M105.82,157.3c-.1-.67-.65-.91-1.32-.53l-53.88,31a2.7,2.7,0,0,0-.95,1l-8-4.59a2.66,2.66,0,0,1,.92-1l53.89-31a3,3,0,0,1,2.68,0l5.32,3A2.94,2.94,0,0,1,105.82,157.3Z" style="fill:#455a64"></path><path d="M104.5,156.77l-53.89,31a3,3,0,0,0-1.33,2.31v30.08c0,.86.6,1.2,1.33.78l53.89-31.05a2.94,2.94,0,0,0,1.34-2.31V157.55C105.84,156.69,105.24,156.35,104.5,156.77Z" style="fill:#37474f"></path></g></g></g><path d="M63.64,194.92c0,.24,0,.56,0,1s0,.83,0,1.26,0,.86,0,1.27,0,.73,0,1a6.49,6.49,0,0,0,.16,1.08,1.7,1.7,0,0,0,.38.76,1,1,0,0,0,.65.3,1.86,1.86,0,0,0,1-.32,4,4,0,0,0,1-.76,5.44,5.44,0,0,0,.62-.88,4.53,4.53,0,0,0,.37-.89,8.22,8.22,0,0,0,.19-.8,3.45,3.45,0,0,1,.19-.71,1,1,0,0,1,.4-.4l2.25-1.3a.21.21,0,0,1,.27,0,.49.49,0,0,1,.11.35,10.35,10.35,0,0,1-.43,2.79,12.24,12.24,0,0,1-1.14,2.72,12.9,12.9,0,0,1-1.69,2.37,8.49,8.49,0,0,1-2.11,1.73,4.37,4.37,0,0,1-2.21.71,2.53,2.53,0,0,1-1.66-.59,3.72,3.72,0,0,1-1.06-1.68,9.41,9.41,0,0,1-.42-2.53q0-1.07,0-2.31t0-2.4a13.78,13.78,0,0,1,.41-3,14.74,14.74,0,0,1,1.06-2.9,12.28,12.28,0,0,1,1.66-2.51,8.82,8.82,0,0,1,2.22-1.85,4.69,4.69,0,0,1,2.11-.7,2.86,2.86,0,0,1,1.69.41,3,3,0,0,1,1.14,1.41,5.86,5.86,0,0,1,.43,2.3,1.19,1.19,0,0,1-.11.47.71.71,0,0,1-.27.33l-2.25,1.3c-.2.11-.33.13-.4.06a1.25,1.25,0,0,1-.19-.49,3.56,3.56,0,0,0-.19-.58,1.13,1.13,0,0,0-.37-.46,1.1,1.1,0,0,0-.62-.16,2.16,2.16,0,0,0-1,.35,3.54,3.54,0,0,0-1,.81,5,5,0,0,0-.65,1.06,5.41,5.41,0,0,0-.38,1.2A10.42,10.42,0,0,0,63.64,194.92Z" style="fill:#f0f0f0"></path><path d="M79.44,191.39v4.37a1.42,1.42,0,0,1-.14.59,1,1,0,0,1-.32.4L76.81,198a.27.27,0,0,1-.33,0,.58.58,0,0,1-.14-.43v-4.37l-2.66,1.54a.25.25,0,0,1-.33,0,.58.58,0,0,1-.14-.43V191.6a1.34,1.34,0,0,1,.14-.58.88.88,0,0,1,.33-.41l2.66-1.54V184.7a1.37,1.37,0,0,1,.14-.58.85.85,0,0,1,.33-.4L79,182.47a.24.24,0,0,1,.32,0,.57.57,0,0,1,.14.42v4.38l2.65-1.53a.24.24,0,0,1,.33,0,.57.57,0,0,1,.14.42v2.68a1.37,1.37,0,0,1-.14.58.8.8,0,0,1-.33.4Z" style="fill:#f0f0f0"></path><path d="M90.85,184.81v4.37a1.41,1.41,0,0,1-.14.58.85.85,0,0,1-.33.4l-2.16,1.25a.25.25,0,0,1-.33,0,.57.57,0,0,1-.14-.42v-4.38l-2.67,1.54a.23.23,0,0,1-.32,0,.57.57,0,0,1-.14-.42V185a1.37,1.37,0,0,1,.14-.58.84.84,0,0,1,.32-.4l2.67-1.54v-4.37a1.42,1.42,0,0,1,.14-.59.9.9,0,0,1,.33-.4l2.16-1.25a.27.27,0,0,1,.33,0,.58.58,0,0,1,.14.43v4.37l2.65-1.53a.26.26,0,0,1,.33,0,.58.58,0,0,1,.13.43v2.67a1.33,1.33,0,0,1-.13.58.86.86,0,0,1-.33.4Z" style="fill:#f0f0f0"></path></g></g></svg>