<svg xmlns="http://www.w3.org/2000/svg" viewBox="0 0 500 500"><g id="freepik--speech-bubble--inject-2"><g id="freepik--speech-bubble--inject-2"><path d="M193.34,106.69,189,98.48l3.51-10.15V82.12l-10.75,6.21v6.21l4.62,8a.62.62,0,0,0,.32.28h0Z" style="fill:#000075"></path><path d="M193.34,106.69,189,98.48l3.51-10.15V82.12l-10.75,6.21v6.21l4.62,8a.62.62,0,0,0,.32.28h0Z" style="opacity:0.2"></path><path d="M219,32.75a7.14,7.14,0,0,0-3.23-5.59l-2.62-1.51a7.12,7.12,0,0,0-6.45,0L166.45,48.94a7.13,7.13,0,0,0-3.22,5.59V98.84a7.13,7.13,0,0,0,3.22,5.58l2.63,1.52a7.12,7.12,0,0,0,6.45,0l12.95-7.48,4.62,8a.68.68,0,0,0,1.24-.12l4.88-14.08,16.58-9.6A7.14,7.14,0,0,0,219,77.06Z" style="fill:#000075"></path><path d="M163.23,98.84a7.13,7.13,0,0,0,3.22,5.58l2.63,1.52a7.21,7.21,0,0,0,5.9.26c-1.52.57-2.68-.28-2.68-2.12V59.77a6.64,6.64,0,0,1,.95-3.18l-9.08-5.24a6.62,6.62,0,0,0-.94,3.18Z" style="opacity:0.2"></path><path d="M218.92,31.83c-.37-1.37-1.62-1.8-3.11-.95l-40.28,23.3a6.37,6.37,0,0,0-2.27,2.41l-9.08-5.24a6.58,6.58,0,0,1,2.27-2.4l40.27-23.3a7.12,7.12,0,0,1,6.45,0l2.64,1.52A7.08,7.08,0,0,1,218.92,31.83Z" style="fill:#fff;opacity:0.5"></path><g id="freepik----inject-2"><path d="M178.23,77.16a2.36,2.36,0,0,1,.16-.92,7,7,0,0,1,.47-.86l8.76-14.15a.66.66,0,0,1,.14-.17l.1-.07a.24.24,0,0,1,.32,0,.58.58,0,0,1,.14.43v5.46a2.34,2.34,0,0,1-.26,1.14,7.16,7.16,0,0,1-.44.75l-4.52,6.88,4.52,2.08a1.92,1.92,0,0,1,.44.21c.17.11.26.39.26.83v3.88a1.3,1.3,0,0,1-.14.58.83.83,0,0,1-.32.4l-.1,0a.23.23,0,0,1-.14,0l-8.76-4a1.18,1.18,0,0,1-.47-.32,1.17,1.17,0,0,1-.16-.73Z" style="fill:#fff"></path><path d="M197.31,55.3a5.6,5.6,0,0,1,.33-.88,1.59,1.59,0,0,1,.64-.69L201.21,52a.26.26,0,0,1,.34,0,.61.61,0,0,1,.14.44,1.47,1.47,0,0,1,0,.33l-7.4,31.54a4.25,4.25,0,0,1-.31.85,1.59,1.59,0,0,1-.65.71l-2.87,1.66a.26.26,0,0,1-.34,0,.56.56,0,0,1-.14-.44,1.33,1.33,0,0,1,0-.32Z" style="fill:#fff"></path><path d="M213.4,60.4a2.3,2.3,0,0,1-.16.92,7,7,0,0,1-.47.86L204,76.34a1.31,1.31,0,0,1-.14.16l-.1.08a.25.25,0,0,1-.33,0,.55.55,0,0,1-.13-.43V70.67a2.24,2.24,0,0,1,.25-1.12c.17-.3.32-.54.45-.73l3.83-5.92L204,61.44a1.6,1.6,0,0,1-.45-.23c-.17-.12-.25-.4-.25-.85V54.9a1.33,1.33,0,0,1,.13-.58.93.93,0,0,1,.33-.39l.1,0H204l8.76,4a.87.87,0,0,1,.63,1Z" style="fill:#fff"></path></g></g></g></svg>